name rise32.9588peak41.5061fall63.4684.mot
datacolumns 19
datarows 24
range 12.71162200000000 12.75828500000000
endheader
time	ground_force1_vx	ground_force1_vy	ground_force1_vz	ground_force1_px	ground_force1_py	ground_force1_pz	ground_force2_vx	ground_force2_vy	ground_force2_vz	ground_force2_px	ground_force2_py	ground_force2_pz	ground_torque1_x	ground_torque1_y	ground_torque1_z	ground_torque2_x	ground_torque2_y	ground_torque2_z	
12.71162200000000	51.29289300000000	748.75536799999998	47.29477700000000	0.30574500000000	0.00000000000000	0.11150300000000	0.00000000000000	0.00000000000000	0.00000000000000	0.00000000000000	0.00000000000000	0.00000000000000	0.00000000000000	16.49676000000000	0.00000000000000	0.00000000000000	0.00000000000000	0.00000000000000	
12.72162200000000	50.96066800000000	752.39571899999999	47.42655600000000	0.30510700000000	0.00000000000000	0.11148500000000	0.00000000000000	0.00000000000000	0.00000000000000	0.00000000000000	0.00000000000000	0.00000000000000	0.00000000000000	16.55512600000000	0.00000000000000	0.00000000000000	0.00000000000000	0.00000000000000	
12.72328600000000	50.62318700000000	755.91714500000000	47.55927600000000	0.30447600000000	0.00000000000000	0.11146900000000	0.00000000000000	0.00000000000000	0.00000000000000	0.00000000000000	0.00000000000000	0.00000000000000	0.00000000000000	16.61680400000000	0.00000000000000	0.00000000000000	0.00000000000000	0.00000000000000	
12.72494900000000	50.28055100000000	759.31630099999995	47.69250200000000	0.30385000000000	0.00000000000000	0.11145400000000	0.00000000000000	0.00000000000000	0.00000000000000	0.00000000000000	0.00000000000000	0.00000000000000	0.00000000000000	16.68147700000000	0.00000000000000	0.00000000000000	0.00000000000000	0.00000000000000	
12.72661800000000	49.93284300000000	762.58996300000001	47.82575100000000	0.30322700000000	0.00000000000000	0.11144100000000	0.00000000000000	0.00000000000000	0.00000000000000	0.00000000000000	0.00000000000000	0.00000000000000	0.00000000000000	16.74879800000000	0.00000000000000	0.00000000000000	0.00000000000000	0.00000000000000	
12.72828400000000	49.58012500000000	765.73504400000002	47.95849300000000	0.30260500000000	0.00000000000000	0.11142900000000	0.00000000000000	0.00000000000000	0.00000000000000	0.00000000000000	0.00000000000000	0.00000000000000	0.00000000000000	16.81838900000000	0.00000000000000	0.00000000000000	0.00000000000000	0.00000000000000	
12.72995300000000	49.22244600000000	768.74861199999998	48.09016500000000	0.30198300000000	0.00000000000000	0.11141800000000	0.00000000000000	0.00000000000000	0.00000000000000	0.00000000000000	0.00000000000000	0.00000000000000	0.00000000000000	16.88984600000000	0.00000000000000	0.00000000000000	0.00000000000000	0.00000000000000	
12.73162200000000	48.85984300000000	771.62790500000006	48.22017100000000	0.30136000000000	0.00000000000000	0.11140800000000	0.00000000000000	0.00000000000000	0.00000000000000	0.00000000000000	0.00000000000000	0.00000000000000	0.00000000000000	16.96274000000000	0.00000000000000	0.00000000000000	0.00000000000000	0.00000000000000	
12.73328400000000	48.49234600000000	774.37034500000004	48.34788900000000	0.30073200000000	0.00000000000000	0.11140000000000	0.00000000000000	0.00000000000000	0.00000000000000	0.00000000000000	0.00000000000000	0.00000000000000	0.00000000000000	17.03662700000000	0.00000000000000	0.00000000000000	0.00000000000000	0.00000000000000	
12.73494900000000	48.11998100000000	776.97355400000004	48.47267900000000	0.30009900000000	0.00000000000000	0.11139300000000	0.00000000000000	0.00000000000000	0.00000000000000	0.00000000000000	0.00000000000000	0.00000000000000	0.00000000000000	17.11104400000000	0.00000000000000	0.00000000000000	0.00000000000000	0.00000000000000	
12.73661500000000	47.74277100000000	779.43536700000004	48.59389000000000	0.29945900000000	0.00000000000000	0.11138700000000	0.00000000000000	0.00000000000000	0.00000000000000	0.00000000000000	0.00000000000000	0.00000000000000	0.00000000000000	17.18552000000000	0.00000000000000	0.00000000000000	0.00000000000000	0.00000000000000	
12.73828200000000	47.36074500000000	781.75383999999997	48.71086200000000	0.29881000000000	0.00000000000000	0.11138300000000	0.00000000000000	0.00000000000000	0.00000000000000	0.00000000000000	0.00000000000000	0.00000000000000	0.00000000000000	17.25957500000000	0.00000000000000	0.00000000000000	0.00000000000000	0.00000000000000	
12.73994900000000	46.97393300000000	783.92726600000003	48.82293700000000	0.29815200000000	0.00000000000000	0.11137900000000	0.00000000000000	0.00000000000000	0.00000000000000	0.00000000000000	0.00000000000000	0.00000000000000	0.00000000000000	17.33272700000000	0.00000000000000	0.00000000000000	0.00000000000000	0.00000000000000	
12.74161600000000	46.58237400000000	785.95418099999995	48.92945800000000	0.29748100000000	0.00000000000000	0.11137700000000	0.00000000000000	0.00000000000000	0.00000000000000	0.00000000000000	0.00000000000000	0.00000000000000	0.00000000000000	17.40449200000000	0.00000000000000	0.00000000000000	0.00000000000000	0.00000000000000	
12.74328400000000	46.18612000000000	787.83337400000005	49.02978300000000	0.29679800000000	0.00000000000000	0.11137700000000	0.00000000000000	0.00000000000000	0.00000000000000	0.00000000000000	0.00000000000000	0.00000000000000	0.00000000000000	17.47439100000000	0.00000000000000	0.00000000000000	0.00000000000000	0.00000000000000	
12.74494800000000	45.78523100000000	789.56389300000001	49.12328300000000	0.29610100000000	0.00000000000000	0.11137700000000	0.00000000000000	0.00000000000000	0.00000000000000	0.00000000000000	0.00000000000000	0.00000000000000	0.00000000000000	17.54195300000000	0.00000000000000	0.00000000000000	0.00000000000000	0.00000000000000	
12.74661700000000	45.37978700000000	791.14505299999996	49.20934800000000	0.29538800000000	0.00000000000000	0.11137900000000	0.00000000000000	0.00000000000000	0.00000000000000	0.00000000000000	0.00000000000000	0.00000000000000	0.00000000000000	17.60671500000000	0.00000000000000	0.00000000000000	0.00000000000000	0.00000000000000	
12.74828600000000	44.96988100000000	792.57643800000005	49.28739700000000	0.29465900000000	0.00000000000000	0.11138100000000	0.00000000000000	0.00000000000000	0.00000000000000	0.00000000000000	0.00000000000000	0.00000000000000	0.00000000000000	17.66823100000000	0.00000000000000	0.00000000000000	0.00000000000000	0.00000000000000	
12.74995600000000	44.55562500000000	793.85790699999995	49.35687400000000	0.29391200000000	0.00000000000000	0.11138500000000	0.00000000000000	0.00000000000000	0.00000000000000	0.00000000000000	0.00000000000000	0.00000000000000	0.00000000000000	17.72606900000000	0.00000000000000	0.00000000000000	0.00000000000000	0.00000000000000	
12.75162300000000	44.13715200000000	794.98959700000000	49.41725800000000	0.29314700000000	0.00000000000000	0.11139000000000	0.00000000000000	0.00000000000000	0.00000000000000	0.00000000000000	0.00000000000000	0.00000000000000	0.00000000000000	17.77981900000000	0.00000000000000	0.00000000000000	0.00000000000000	0.00000000000000	
12.75328700000000	43.71461700000000	795.97191899999996	49.46806500000000	0.29236300000000	0.00000000000000	0.11139600000000	0.00000000000000	0.00000000000000	0.00000000000000	0.00000000000000	0.00000000000000	0.00000000000000	0.00000000000000	17.82909000000000	0.00000000000000	0.00000000000000	0.00000000000000	0.00000000000000	
12.75495100000000	43.28819300000000	796.80556500000000	49.50884900000000	0.29155900000000	0.00000000000000	0.11140300000000	0.00000000000000	0.00000000000000	0.00000000000000	0.00000000000000	0.00000000000000	0.00000000000000	0.00000000000000	17.87351900000000	0.00000000000000	0.00000000000000	0.00000000000000	0.00000000000000	
12.75661900000000	42.85807900000000	797.49150199999997	49.53920700000000	0.29073500000000	0.00000000000000	0.11141100000000	0.00000000000000	0.00000000000000	0.00000000000000	0.00000000000000	0.00000000000000	0.00000000000000	0.00000000000000	17.91276600000000	0.00000000000000	0.00000000000000	0.00000000000000	0.00000000000000	
12.75828500000000	42.42449600000000	798.03097100000002	49.55878000000000	0.28989000000000	0.00000000000000	0.11141900000000	0.00000000000000	0.00000000000000	0.00000000000000	0.00000000000000	0.00000000000000	0.00000000000000	0.00000000000000	17.94652100000000	0.00000000000000	0.00000000000000	0.00000000000000	0.00000000000000	
